<mxfile host="65bd71144e">
    <diagram id="XX8ALJ1K36812sOOz0n9" name="Page-1">
        <mxGraphModel dx="561" dy="1707" grid="1" gridSize="10" guides="1" tooltips="1" connect="1" arrows="1" fold="1" page="1" pageScale="1" pageWidth="850" pageHeight="1100" math="0" shadow="0">
            <root>
                <mxCell id="0"/>
                <mxCell id="1" parent="0"/>
                <mxCell id="55" value="" style="whiteSpace=wrap;html=1;" parent="1" vertex="1">
                    <mxGeometry x="35" y="-235" width="170" height="180" as="geometry"/>
                </mxCell>
                <mxCell id="17" value="" style="rounded=0;whiteSpace=wrap;html=1;" parent="1" vertex="1">
                    <mxGeometry x="250" y="340" width="320" height="170" as="geometry"/>
                </mxCell>
                <mxCell id="15" value="AWS Account" style="whiteSpace=wrap;html=1;aspect=fixed;rounded=0;spacingLeft=0;align=left;verticalAlign=top;" parent="1" vertex="1">
                    <mxGeometry x="90" y="-30" width="650" height="650" as="geometry"/>
                </mxCell>
                <mxCell id="14" value="&lt;div style=&quot;&quot;&gt;&lt;span style=&quot;background-color: initial;&quot;&gt;Region&lt;/span&gt;&lt;/div&gt;" style="whiteSpace=wrap;html=1;aspect=fixed;align=left;verticalAlign=top;" parent="1" vertex="1">
                    <mxGeometry x="120" width="590" height="590" as="geometry"/>
                </mxCell>
                <mxCell id="13" value="VPC" style="whiteSpace=wrap;html=1;aspect=fixed;align=left;verticalAlign=top;" parent="1" vertex="1">
                    <mxGeometry x="140" y="30" width="540" height="540" as="geometry"/>
                </mxCell>
                <mxCell id="2" value="Availability Zone" style="aspect=fixed;align=left;labelPosition=center;verticalLabelPosition=middle;verticalAlign=top;rounded=0;textDirection=ltr;horizontal=1;" parent="1" vertex="1">
                    <mxGeometry x="410" y="150" width="250" height="250" as="geometry"/>
                </mxCell>
                <mxCell id="4" value="public subnet" style="whiteSpace=wrap;html=1;aspect=fixed;rounded=1;verticalAlign=bottom;" parent="1" vertex="1">
                    <mxGeometry x="220" y="180" width="100" height="100" as="geometry"/>
                </mxCell>
                <mxCell id="38" value="Availability Zone" style="aspect=fixed;align=left;labelPosition=center;verticalLabelPosition=middle;verticalAlign=top;rounded=0;textDirection=ltr;horizontal=1;" parent="1" vertex="1">
                    <mxGeometry x="140" y="150" width="250" height="250" as="geometry"/>
                </mxCell>
                <mxCell id="28" style="edgeStyle=none;html=1;exitX=0.55;exitY=0.95;exitDx=0;exitDy=0;exitPerimeter=0;entryX=0.5;entryY=1;entryDx=0;entryDy=0;" parent="1" source="6" edge="1">
                    <mxGeometry relative="1" as="geometry">
                        <mxPoint x="415" y="60" as="targetPoint"/>
                    </mxGeometry>
                </mxCell>
                <mxCell id="31" style="edgeStyle=none;html=1;exitX=0.5;exitY=1;exitDx=0;exitDy=0;" parent="1" edge="1">
                    <mxGeometry relative="1" as="geometry">
                        <mxPoint x="480" y="370" as="targetPoint"/>
                        <mxPoint x="480" y="370" as="sourcePoint"/>
                    </mxGeometry>
                </mxCell>
                <mxCell id="35" value="NAT" style="text;strokeColor=none;align=center;fillColor=none;html=1;verticalAlign=middle;whiteSpace=wrap;rounded=0;" parent="1" vertex="1">
                    <mxGeometry x="450" y="370" width="60" height="30" as="geometry"/>
                </mxCell>
                <mxCell id="3" value="private subnet" style="whiteSpace=wrap;html=1;aspect=fixed;labelBorderColor=none;labelPosition=center;verticalLabelPosition=middle;align=center;verticalAlign=bottom;horizontal=1;labelBackgroundColor=default;rounded=1;" parent="1" vertex="1">
                    <mxGeometry x="500" y="295" width="100" height="100" as="geometry"/>
                </mxCell>
                <mxCell id="39" value="private subnet" style="whiteSpace=wrap;html=1;aspect=fixed;labelBorderColor=none;labelPosition=center;verticalLabelPosition=middle;align=center;verticalAlign=bottom;horizontal=1;labelBackgroundColor=default;rounded=1;" parent="1" vertex="1">
                    <mxGeometry x="215" y="295" width="100" height="100" as="geometry"/>
                </mxCell>
                <mxCell id="40" value="public subnet" style="whiteSpace=wrap;html=1;aspect=fixed;labelBorderColor=none;labelPosition=center;verticalLabelPosition=middle;align=center;verticalAlign=bottom;horizontal=1;labelBackgroundColor=default;rounded=1;" parent="1" vertex="1">
                    <mxGeometry x="210" y="180" width="100" height="100" as="geometry"/>
                </mxCell>
                <mxCell id="41" value="public subnet" style="whiteSpace=wrap;html=1;aspect=fixed;labelBorderColor=none;labelPosition=center;verticalLabelPosition=middle;align=center;verticalAlign=bottom;horizontal=1;labelBackgroundColor=default;rounded=1;" parent="1" vertex="1">
                    <mxGeometry x="500" y="180" width="100" height="100" as="geometry"/>
                </mxCell>
                <mxCell id="52" style="edgeStyle=none;html=1;exitX=1;exitY=0;exitDx=0;exitDy=0;fontSize=16;" parent="1" source="37" target="46" edge="1">
                    <mxGeometry relative="1" as="geometry"/>
                </mxCell>
                <mxCell id="37" value="Database" style="text;strokeColor=none;align=center;fillColor=none;html=1;verticalAlign=middle;whiteSpace=wrap;rounded=0;" parent="1" vertex="1">
                    <mxGeometry x="235" y="330" width="60" height="30" as="geometry"/>
                </mxCell>
                <mxCell id="42" value="Database" style="text;strokeColor=none;align=center;fillColor=none;html=1;verticalAlign=middle;whiteSpace=wrap;rounded=0;" parent="1" vertex="1">
                    <mxGeometry x="520" y="330" width="60" height="30" as="geometry"/>
                </mxCell>
                <mxCell id="36" value="EC2" style="text;strokeColor=none;align=center;fillColor=none;html=1;verticalAlign=middle;whiteSpace=wrap;rounded=0;" parent="1" vertex="1">
                    <mxGeometry x="255" y="240" width="60" height="30" as="geometry"/>
                </mxCell>
                <mxCell id="43" value="EC2" style="text;strokeColor=none;align=center;fillColor=none;html=1;verticalAlign=middle;whiteSpace=wrap;rounded=0;" parent="1" vertex="1">
                    <mxGeometry x="550" y="240" width="60" height="30" as="geometry"/>
                </mxCell>
                <mxCell id="45" value="BASTION" style="text;strokeColor=none;align=center;fillColor=none;html=1;verticalAlign=middle;whiteSpace=wrap;rounded=0;fontSize=16;" parent="1" vertex="1">
                    <mxGeometry x="230" y="200" width="70" height="30" as="geometry"/>
                </mxCell>
                <mxCell id="53" style="edgeStyle=none;html=1;exitX=0.5;exitY=0;exitDx=0;exitDy=0;fontSize=16;" parent="1" source="46" edge="1">
                    <mxGeometry relative="1" as="geometry">
                        <mxPoint x="540" y="-100" as="targetPoint"/>
                    </mxGeometry>
                </mxCell>
                <mxCell id="46" value="NAT" style="text;strokeColor=none;align=center;fillColor=none;html=1;verticalAlign=middle;whiteSpace=wrap;rounded=0;fontSize=17;" parent="1" vertex="1">
                    <mxGeometry x="520" y="190" width="60" height="30" as="geometry"/>
                </mxCell>
                <mxCell id="49" value="" style="edgeStyle=none;html=1;fontSize=16;entryX=1;entryY=0.5;entryDx=0;entryDy=0;" parent="1" source="48" target="56" edge="1">
                    <mxGeometry relative="1" as="geometry"/>
                </mxCell>
                <mxCell id="48" value="To update database in the private subnet, an admin needs to login into BASTION, then login to Database in the private subnet, then send database traffic to NAT which is pretending to be internet&amp;nbsp;" style="text;strokeColor=none;align=center;fillColor=none;html=1;verticalAlign=middle;whiteSpace=wrap;rounded=0;fontSize=16;" parent="1" vertex="1">
                    <mxGeometry x="350" y="-280" width="290" height="100" as="geometry"/>
                </mxCell>
                <mxCell id="54" value="DEFAULT RT&lt;br&gt;10.10.0.0/16&lt;br&gt;&lt;br&gt;PUBLIC RT&lt;br&gt;10.10.0.0/16&lt;br&gt;0.0.0.0/0 IGW&lt;br&gt;&lt;br&gt;PRIVATE RT&lt;br&gt;10.10.0.0/16&lt;br&gt;0.0.0.0/0 NAT-ID&lt;br&gt;172.68.0.0/16 VGW" style="text;strokeColor=none;align=center;fillColor=none;html=1;verticalAlign=middle;whiteSpace=wrap;rounded=0;" parent="1" vertex="1">
                    <mxGeometry x="30" y="-260" width="180" height="230" as="geometry"/>
                </mxCell>
                <mxCell id="58" style="edgeStyle=none;html=1;exitX=0.25;exitY=1;exitDx=0;exitDy=0;entryX=0.07;entryY=0.4;entryDx=0;entryDy=0;entryPerimeter=0;" edge="1" parent="1" source="56" target="57">
                    <mxGeometry relative="1" as="geometry"/>
                </mxCell>
                <mxCell id="56" value="DATE CENTER" style="whiteSpace=wrap;html=1;aspect=fixed;labelBorderColor=none;labelPosition=center;verticalLabelPosition=middle;align=center;verticalAlign=bottom;horizontal=1;labelBackgroundColor=default;rounded=1;" vertex="1" parent="1">
                    <mxGeometry x="235" y="-200" width="100" height="100" as="geometry"/>
                </mxCell>
                <mxCell id="59" style="edgeStyle=none;html=1;exitX=0.55;exitY=0.95;exitDx=0;exitDy=0;exitPerimeter=0;entryX=1;entryY=0;entryDx=0;entryDy=0;" edge="1" parent="1" source="57" target="37">
                    <mxGeometry relative="1" as="geometry"/>
                </mxCell>
                <mxCell id="57" value="VGW" style="ellipse;shape=cloud;whiteSpace=wrap;html=1;rounded=1;" vertex="1" parent="1">
                    <mxGeometry x="260" y="-100" width="120" height="150" as="geometry"/>
                </mxCell>
                <mxCell id="6" value="Internet Gateway&lt;br&gt;" style="ellipse;shape=cloud;whiteSpace=wrap;html=1;rounded=1;" parent="1" vertex="1">
                    <mxGeometry x="350" y="-100" width="120" height="150" as="geometry"/>
                </mxCell>
            </root>
        </mxGraphModel>
    </diagram>
</mxfile>